<?xml version="1.0"?>
<svg xmlns="http://www.w3.org/2000/svg" xmlns:xlink="http://www.w3.org/1999/xlink" version="1.1" viewBox="0 0 224 224" width="60px" height="60px"><g fill="none" fill-rule="nonzero" stroke="none" stroke-width="1" stroke-linecap="butt" stroke-linejoin="miter" stroke-miterlimit="10" stroke-dasharray="" stroke-dashoffset="0" font-family="none" font-weight="none" font-size="none" text-anchor="none" style="mix-blend-mode: normal"><path d="M0,224v-224h224v224z" fill="none"/><g fill="#2a3166"><path d="M170.45,22.4c-3.82107,0 -7.6426,1.45927 -10.55834,4.375l-18.025,18.025l37.33333,37.33333l18.025,-18.025c5.83147,-5.83147 5.83147,-15.2852 0,-21.11667l-16.21666,-16.21667c-2.91573,-2.91573 -6.73727,-4.375 -10.55834,-4.375zM126.93333,59.73333l-87.66042,87.66041c0,0 6.85265,-0.61401 9.40625,1.93959c2.5536,2.5536 0.4515,19.264 3.5875,22.4c3.136,3.136 19.74105,0.92855 22.12292,3.31041c2.38187,2.38187 2.21667,9.68333 2.21667,9.68333l87.66041,-87.66041zM29.86667,171.73333l-7.04375,19.95c-0.2769,0.78729 -0.41986,1.61544 -0.42292,2.45c0,4.12373 3.34294,7.46667 7.46667,7.46667c0.83456,-0.00306 1.66271,-0.14602 2.45,-0.42292c0.02436,-0.00959 0.04866,-0.01932 0.07292,-0.02916l0.18958,-0.05833c0.01462,-0.00967 0.0292,-0.0194 0.04375,-0.02917l19.64375,-6.92708l-11.2,-11.2z"/></g></g></svg>
